{
	"asset":{
		"copyright":"Johan Hellberg",
		"generator":"Khronos glTF Blender I/O v4.4.56",
		"version":"2.0"
	},
	"scene":0,
	"scenes":[
		{
			"name":"Scene",
			"nodes":[
				0,
				1,
				2
			]
		}
	],
	"nodes":[
		{
			"mesh":0,
			"name":"figure"
		},
		{
			"name":"man side",
			"rotation":[
				0.5,
				-0.5,
				0.5000000596046448,
				0.5
			],
			"translation":[
				-2,
				0,
				0
			]
		},
		{
			"name":"man front",
			"rotation":[
				0,
				-0.7071068286895752,
				0.7071068286895752,
				3.090862321641907e-08
			],
			"translation":[
				0.05999999865889549,
				0,
				-2
			]
		}
	],
	"materials":[
		{
			"doubleSided":true,
			"name":"Material",
			"pbrMetallicRoughness":{
				"baseColorFactor":[
					0.800000011920929,
					0.800000011920929,
					0.800000011920929,
					1
				],
				"metallicFactor":0,
				"roughnessFactor":0.5
			}
		}
	],
	"meshes":[
		{
			"name":"Cube",
			"primitives":[
				{
					"attributes":{
						"POSITION":0,
						"NORMAL":1,
						"TEXCOORD_0":2
					},
					"indices":3,
					"material":0
				}
			]
		}
	],
	"accessors":[
		{
			"bufferView":0,
			"componentType":5126,
			"count":1258,
			"max":[
				1.2786036729812622,
				2.189274311065674,
				0.3879184126853943
			],
			"min":[
				-1.2786036729812622,
				-2.082230567932129,
				-0.42294660210609436
			],
			"type":"VEC3"
		},
		{
			"bufferView":1,
			"componentType":5126,
			"count":1258,
			"type":"VEC3"
		},
		{
			"bufferView":2,
			"componentType":5126,
			"count":1258,
			"type":"VEC2"
		},
		{
			"bufferView":3,
			"componentType":5123,
			"count":2052,
			"type":"SCALAR"
		}
	],
	"bufferViews":[
		{
			"buffer":0,
			"byteLength":15096,
			"byteOffset":0,
			"target":34962
		},
		{
			"buffer":0,
			"byteLength":15096,
			"byteOffset":15096,
			"target":34962
		},
		{
			"buffer":0,
			"byteLength":10064,
			"byteOffset":30192,
			"target":34962
		},
		{
			"buffer":0,
			"byteLength":4104,
			"byteOffset":40256,
			"target":34963
		}
	],
	"buffers":[
		{
			"byteLength":44360,
			"uri":"figures-low-poly.bin"
		}
	]
}
